<svg version="1.0" xmlns="http://www.w3.org/2000/svg"
 width="128.000000pt" height="128.000000pt" viewBox="0 0 128.000000 128.000000"
 preserveAspectRatio="xMidYMid meet">
<g transform="translate(0.000000,128.000000) scale(0.100000,-0.100000)"
fill="#ffffff" stroke="none">
<path d="M330 1215 c-184 -26 -284 -60 -278 -92 5 -24 91 -57 208 -79 77 -15
148 -18 380 -18 232 0 303 3 380 18 126 23 205 55 205 81 0 26 -79 57 -205 80
-129 24 -554 30 -690 10z"/>
<path d="M1251 1069 c-13 -10 -45 -27 -72 -36 l-49 -18 0 -133 0 -133 23 7
c50 15 83 33 105 56 21 24 22 32 20 151 l-3 125 -24 -19z"/>
<path d="M20 945 l0 -124 29 -21 c16 -11 48 -27 70 -35 l41 -14 0 130 c0 115
-2 130 -17 136 -10 3 -42 16 -70 29 l-53 23 0 -124z"/>
<path d="M1020 995 c-36 -7 -95 -16 -132 -20 l-68 -7 0 -130 0 -131 83 6 c45
3 106 11 135 17 l52 12 0 134 c0 74 -1 133 -2 133 -2 -1 -32 -7 -68 -14z"/>
<path d="M212 869 l3 -133 35 -8 c19 -4 74 -10 123 -14 l87 -7 0 132 c0 118
-2 131 -17 131 -23 1 -158 18 -201 26 l-33 6 3 -133z"/>
<path d="M500 834 l0 -134 140 0 140 0 0 134 0 134 -140 0 -140 0 0 -134z"/>
<path d="M20 616 c0 -135 1 -144 23 -164 22 -21 86 -52 107 -52 6 0 10 54 10
150 0 122 -3 150 -14 150 -8 0 -39 13 -70 29 l-56 30 0 -143z"/>
<path d="M1215 729 c-27 -16 -58 -29 -67 -29 -16 0 -18 -14 -18 -151 l0 -151
28 6 c15 4 47 19 72 34 l45 28 3 147 c1 81 -1 147 -5 146 -5 -1 -30 -14 -58
-30z"/>
<path d="M212 534 l3 -149 70 -11 c39 -6 94 -14 123 -16 l52 -5 0 147 0 147
-102 12 c-57 6 -113 14 -126 17 l-23 6 3 -148z"/>
<path d="M1049 676 c-3 -3 -55 -10 -117 -17 l-112 -12 0 -149 c0 -81 3 -148 8
-148 23 1 227 30 243 35 18 6 19 18 19 151 0 133 -1 144 -18 144 -10 0 -21 -2
-23 -4z"/>
<path d="M500 499 l0 -149 140 0 140 0 0 149 0 148 -140 0 -140 0 0 -148z"/>
<path d="M20 261 l0 -151 53 -30 c89 -51 88 -53 85 117 l-3 146 -38 13 c-21 7
-51 23 -67 34 l-30 21 0 -150z"/>
<path d="M1251 396 c-7 -8 -37 -25 -67 -37 l-54 -23 0 -144 0 -144 33 6 c17 3
50 19 72 34 l40 28 3 147 c2 143 -2 164 -27 133z"/>
<path d="M210 181 c0 -137 2 -151 18 -151 9 -1 65 -7 125 -14 l107 -12 0 147
0 146 -112 13 c-62 7 -118 14 -125 17 -10 4 -13 -26 -13 -146z"/>
<path d="M975 314 c-44 -7 -97 -13 -117 -13 l-38 -1 0 -148 0 -148 123 12 c67
7 128 13 135 13 9 1 12 38 12 151 0 137 -2 150 -17 149 -10 -1 -54 -8 -98 -15z"/>
<path d="M500 148 l0 -148 140 0 140 0 0 148 0 147 -140 1 -140 0 0 -148z"/>
</g>
</svg>
